<?xml version="1.0" encoding="utf-8" standalone="no"?>
<!DOCTYPE svg PUBLIC "-//W3C//DTD SVG 1.1//EN"
  "http://www.w3.org/Graphics/SVG/1.1/DTD/svg11.dtd">
<!-- Created with matplotlib (https://matplotlib.org/) -->
<svg height="576pt" version="1.1" viewBox="0 0 864 576" width="864pt" xmlns="http://www.w3.org/2000/svg" xmlns:xlink="http://www.w3.org/1999/xlink">
 <metadata>
  <rdf:RDF xmlns:cc="http://creativecommons.org/ns#" xmlns:dc="http://purl.org/dc/elements/1.1/" xmlns:rdf="http://www.w3.org/1999/02/22-rdf-syntax-ns#">
   <cc:Work>
    <dc:type rdf:resource="http://purl.org/dc/dcmitype/StillImage"/>
    <dc:date>2022-05-19T08:09:00.416114</dc:date>
    <dc:format>image/svg+xml</dc:format>
    <dc:creator>
     <cc:Agent>
      <dc:title>Matplotlib v3.3.2, https://matplotlib.org/</dc:title>
     </cc:Agent>
    </dc:creator>
   </cc:Work>
  </rdf:RDF>
 </metadata>
 <defs>
  <style type="text/css">*{stroke-linecap:butt;stroke-linejoin:round;}</style>
 </defs>
 <g id="figure_1">
  <g id="patch_1">
   <path d="M 0 576 
L 864 576 
L 864 0 
L 0 0 
z
" style="fill:#ffffff;"/>
  </g>
  <g id="axes_1">
   <g id="patch_2">
    <path d="M 108 504 
L 777.6 504 
L 777.6 69.12 
L 108 69.12 
z
" style="fill:#ffffff;"/>
   </g>
   <g id="PathCollection_1">
    <defs>
     <path d="M 0 3 
C 0.795609 3 1.55874 2.683901 2.12132 2.12132 
C 2.683901 1.55874 3 0.795609 3 -0 
C 3 -0.795609 2.683901 -1.55874 2.12132 -2.12132 
C 1.55874 -2.683901 0.795609 -3 0 -3 
C -0.795609 -3 -1.55874 -2.683901 -2.12132 -2.12132 
C -2.683901 -1.55874 -3 -0.795609 -3 0 
C -3 0.795609 -2.683901 1.55874 -2.12132 2.12132 
C -1.55874 2.683901 -0.795609 3 0 3 
z
" id="C0_0_b3677525ee"/>
    </defs>
    <g clip-path="url(#pa83a18fa30)">
     <use style="fill:#440154;stroke:#440154;" x="185.237299" xlink:href="#C0_0_b3677525ee" y="246.832783"/>
    </g>
    <g clip-path="url(#pa83a18fa30)">
     <use style="fill:#440154;stroke:#440154;" x="182.634304" xlink:href="#C0_0_b3677525ee" y="321.165643"/>
    </g>
    <g clip-path="url(#pa83a18fa30)">
     <use style="fill:#440154;stroke:#440154;" x="167.471393" xlink:href="#C0_0_b3677525ee" y="316.366067"/>
    </g>
    <g clip-path="url(#pa83a18fa30)">
     <use style="fill:#440154;stroke:#440154;" x="179.928536" xlink:href="#C0_0_b3677525ee" y="342.324181"/>
    </g>
    <g clip-path="url(#pa83a18fa30)">
     <use style="fill:#440154;stroke:#440154;" x="181.370371" xlink:href="#C0_0_b3677525ee" y="245.731074"/>
    </g>
    <g clip-path="url(#pa83a18fa30)">
     <use style="fill:#440154;stroke:#440154;" x="220.208563" xlink:href="#C0_0_b3677525ee" y="183.650676"/>
    </g>
    <g clip-path="url(#pa83a18fa30)">
     <use style="fill:#440154;stroke:#440154;" x="173.407627" xlink:href="#C0_0_b3677525ee" y="308.057047"/>
    </g>
    <g clip-path="url(#pa83a18fa30)">
     <use style="fill:#440154;stroke:#440154;" x="190.265387" xlink:href="#C0_0_b3677525ee" y="270.194739"/>
    </g>
    <g clip-path="url(#pa83a18fa30)">
     <use style="fill:#440154;stroke:#440154;" x="167.697545" xlink:href="#C0_0_b3677525ee" y="381.259621"/>
    </g>
    <g clip-path="url(#pa83a18fa30)">
     <use style="fill:#440154;stroke:#440154;" x="186.223292" xlink:href="#C0_0_b3677525ee" y="311.697761"/>
    </g>
    <g clip-path="url(#pa83a18fa30)">
     <use style="fill:#440154;stroke:#440154;" x="200.602238" xlink:href="#C0_0_b3677525ee" y="198.065298"/>
    </g>
    <g clip-path="url(#pa83a18fa30)">
     <use style="fill:#440154;stroke:#440154;" x="191.426546" xlink:href="#C0_0_b3677525ee" y="292.454987"/>
    </g>
    <g clip-path="url(#pa83a18fa30)">
     <use style="fill:#440154;stroke:#440154;" x="176.393269" xlink:href="#C0_0_b3677525ee" y="329.867402"/>
    </g>
    <g clip-path="url(#pa83a18fa30)">
     <use style="fill:#440154;stroke:#440154;" x="138.436364" xlink:href="#C0_0_b3677525ee" y="371.239155"/>
    </g>
    <g clip-path="url(#pa83a18fa30)">
     <use style="fill:#440154;stroke:#440154;" x="188.651923" xlink:href="#C0_0_b3677525ee" y="118.147383"/>
    </g>
    <g clip-path="url(#pa83a18fa30)">
     <use style="fill:#440154;stroke:#440154;" x="211.087396" xlink:href="#C0_0_b3677525ee" y="94.293456"/>
    </g>
    <g clip-path="url(#pa83a18fa30)">
     <use style="fill:#440154;stroke:#440154;" x="190.492342" xlink:href="#C0_0_b3677525ee" y="173.266046"/>
    </g>
    <g clip-path="url(#pa83a18fa30)">
     <use style="fill:#440154;stroke:#440154;" x="188.344386" xlink:href="#C0_0_b3677525ee" y="247.963068"/>
    </g>
    <g clip-path="url(#pa83a18fa30)">
     <use style="fill:#440154;stroke:#440154;" x="227.236299" xlink:href="#C0_0_b3677525ee" y="163.958009"/>
    </g>
    <g clip-path="url(#pa83a18fa30)">
     <use style="fill:#440154;stroke:#440154;" x="193.574502" xlink:href="#C0_0_b3677525ee" y="217.757964"/>
    </g>
    <g clip-path="url(#pa83a18fa30)">
     <use style="fill:#440154;stroke:#440154;" x="217.659289" xlink:href="#C0_0_b3677525ee" y="236.058874"/>
    </g>
    <g clip-path="url(#pa83a18fa30)">
     <use style="fill:#440154;stroke:#440154;" x="197.414569" xlink:href="#C0_0_b3677525ee" y="229.822003"/>
    </g>
    <g clip-path="url(#pa83a18fa30)">
     <use style="fill:#440154;stroke:#440154;" x="139.118359" xlink:href="#C0_0_b3677525ee" y="274.674624"/>
    </g>
    <g clip-path="url(#pa83a18fa30)">
     <use style="fill:#440154;stroke:#440154;" x="218.311687" xlink:href="#C0_0_b3677525ee" y="279.87962"/>
    </g>
    <g clip-path="url(#pa83a18fa30)">
     <use style="fill:#440154;stroke:#440154;" x="213.713712" xlink:href="#C0_0_b3677525ee" y="300.243459"/>
    </g>
    <g clip-path="url(#pa83a18fa30)">
     <use style="fill:#440154;stroke:#440154;" x="200.626362" xlink:href="#C0_0_b3677525ee" y="316.525912"/>
    </g>
    <g clip-path="url(#pa83a18fa30)">
     <use style="fill:#440154;stroke:#440154;" x="203.908617" xlink:href="#C0_0_b3677525ee" y="275.051468"/>
    </g>
    <g clip-path="url(#pa83a18fa30)">
     <use style="fill:#440154;stroke:#440154;" x="195.800302" xlink:href="#C0_0_b3677525ee" y="239.596895"/>
    </g>
    <g clip-path="url(#pa83a18fa30)">
     <use style="fill:#440154;stroke:#440154;" x="189.104227" xlink:href="#C0_0_b3677525ee" y="247.934492"/>
    </g>
    <g clip-path="url(#pa83a18fa30)">
     <use style="fill:#440154;stroke:#440154;" x="189.758559" xlink:href="#C0_0_b3677525ee" y="324.154539"/>
    </g>
    <g clip-path="url(#pa83a18fa30)">
     <use style="fill:#440154;stroke:#440154;" x="193.625487" xlink:href="#C0_0_b3677525ee" y="325.256248"/>
    </g>
    <g clip-path="url(#pa83a18fa30)">
     <use style="fill:#440154;stroke:#440154;" x="209.015352" xlink:href="#C0_0_b3677525ee" y="233.12713"/>
    </g>
    <g clip-path="url(#pa83a18fa30)">
     <use style="fill:#440154;stroke:#440154;" x="188.295335" xlink:href="#C0_0_b3677525ee" y="172.864086"/>
    </g>
    <g clip-path="url(#pa83a18fa30)">
     <use style="fill:#440154;stroke:#440154;" x="192.642231" xlink:href="#C0_0_b3677525ee" y="130.968325"/>
    </g>
    <g clip-path="url(#pa83a18fa30)">
     <use style="fill:#440154;stroke:#440154;" x="189.330379" xlink:href="#C0_0_b3677525ee" y="312.828046"/>
    </g>
    <g clip-path="url(#pa83a18fa30)">
     <use style="fill:#440154;stroke:#440154;" x="169.444181" xlink:href="#C0_0_b3677525ee" y="284.273775"/>
    </g>
    <g clip-path="url(#pa83a18fa30)">
     <use style="fill:#440154;stroke:#440154;" x="190.344035" xlink:href="#C0_0_b3677525ee" y="204.908446"/>
    </g>
    <g clip-path="url(#pa83a18fa30)">
     <use style="fill:#440154;stroke:#440154;" x="175.129336" xlink:href="#C0_0_b3677525ee" y="254.432833"/>
    </g>
    <g clip-path="url(#pa83a18fa30)">
     <use style="fill:#440154;stroke:#440154;" x="159.535509" xlink:href="#C0_0_b3677525ee" y="367.72971"/>
    </g>
    <g clip-path="url(#pa83a18fa30)">
     <use style="fill:#440154;stroke:#440154;" x="193.399335" xlink:href="#C0_0_b3677525ee" y="260.362694"/>
    </g>
    <g clip-path="url(#pa83a18fa30)">
     <use style="fill:#440154;stroke:#440154;" x="177.781383" xlink:href="#C0_0_b3677525ee" y="255.198956"/>
    </g>
    <g clip-path="url(#pa83a18fa30)">
     <use style="fill:#440154;stroke:#440154;" x="170.907404" xlink:href="#C0_0_b3677525ee" y="435.564228"/>
    </g>
    <g clip-path="url(#pa83a18fa30)">
     <use style="fill:#440154;stroke:#440154;" x="158.069549" xlink:href="#C0_0_b3677525ee" y="345.862202"/>
    </g>
    <g clip-path="url(#pa83a18fa30)">
     <use style="fill:#440154;stroke:#440154;" x="209.389811" xlink:href="#C0_0_b3677525ee" y="266.378285"/>
    </g>
    <g clip-path="url(#pa83a18fa30)">
     <use style="fill:#440154;stroke:#440154;" x="226.39781" xlink:href="#C0_0_b3677525ee" y="229.272879"/>
    </g>
    <g clip-path="url(#pa83a18fa30)">
     <use style="fill:#440154;stroke:#440154;" x="182.607443" xlink:href="#C0_0_b3677525ee" y="332.127973"/>
    </g>
    <g clip-path="url(#pa83a18fa30)">
     <use style="fill:#440154;stroke:#440154;" x="197.89647" xlink:href="#C0_0_b3677525ee" y="219.223836"/>
    </g>
    <g clip-path="url(#pa83a18fa30)">
     <use style="fill:#440154;stroke:#440154;" x="171.7665" xlink:href="#C0_0_b3677525ee" y="328.79427"/>
    </g>
    <g clip-path="url(#pa83a18fa30)">
     <use style="fill:#440154;stroke:#440154;" x="197.46829" xlink:href="#C0_0_b3677525ee" y="207.897342"/>
    </g>
    <g clip-path="url(#pa83a18fa30)">
     <use style="fill:#440154;stroke:#440154;" x="183.569312" xlink:href="#C0_0_b3677525ee" y="278.532336"/>
    </g>
    <g clip-path="url(#pa83a18fa30)">
     <use style="fill:#21918c;stroke:#21918c;" x="529.42512" xlink:href="#C0_0_b3677525ee" y="192.061812"/>
    </g>
    <g clip-path="url(#pa83a18fa30)">
     <use style="fill:#21918c;stroke:#21918c;" x="498.870409" xlink:href="#C0_0_b3677525ee" y="246.992052"/>
    </g>
    <g clip-path="url(#pa83a18fa30)">
     <use style="fill:#21918c;stroke:#21918c;" x="544.98935" xlink:href="#C0_0_b3677525ee" y="219.150211"/>
    </g>
    <g clip-path="url(#pa83a18fa30)">
     <use style="fill:#21918c;stroke:#21918c;" x="433.902248" xlink:href="#C0_0_b3677525ee" y="418.642884"/>
    </g>
    <g clip-path="url(#pa83a18fa30)">
     <use style="fill:#21918c;stroke:#21918c;" x="512.365333" xlink:href="#C0_0_b3677525ee" y="283.49118"/>
    </g>
    <g clip-path="url(#pa83a18fa30)">
     <use style="fill:#21918c;stroke:#21918c;" x="473.65052" xlink:href="#C0_0_b3677525ee" y="357.290812"/>
    </g>
    <g clip-path="url(#pa83a18fa30)">
     <use style="fill:#21918c;stroke:#21918c;" x="512.968679" xlink:href="#C0_0_b3677525ee" y="252.212944"/>
    </g>
    <g clip-path="url(#pa83a18fa30)">
     <use style="fill:#21918c;stroke:#21918c;" x="353.040932" xlink:href="#C0_0_b3677525ee" y="445.137442"/>
    </g>
    <g clip-path="url(#pa83a18fa30)">
     <use style="fill:#21918c;stroke:#21918c;" x="508.552126" xlink:href="#C0_0_b3677525ee" y="260.46481"/>
    </g>
    <g clip-path="url(#pa83a18fa30)">
     <use style="fill:#21918c;stroke:#21918c;" x="417.246516" xlink:href="#C0_0_b3677525ee" y="402.938132"/>
    </g>
    <g clip-path="url(#pa83a18fa30)">
     <use style="fill:#21918c;stroke:#21918c;" x="373.964911" xlink:href="#C0_0_b3677525ee" y="484.232727"/>
    </g>
    <g clip-path="url(#pa83a18fa30)">
     <use style="fill:#21918c;stroke:#21918c;" x="462.379464" xlink:href="#C0_0_b3677525ee" y="310.231313"/>
    </g>
    <g clip-path="url(#pa83a18fa30)">
     <use style="fill:#21918c;stroke:#21918c;" x="440.983706" xlink:href="#C0_0_b3677525ee" y="377.025557"/>
    </g>
    <g clip-path="url(#pa83a18fa30)">
     <use style="fill:#21918c;stroke:#21918c;" x="503.418529" xlink:href="#C0_0_b3677525ee" y="313.351478"/>
    </g>
    <g clip-path="url(#pa83a18fa30)">
     <use style="fill:#21918c;stroke:#21918c;" x="402.922095" xlink:href="#C0_0_b3677525ee" y="332.823686"/>
    </g>
    <g clip-path="url(#pa83a18fa30)">
     <use style="fill:#21918c;stroke:#21918c;" x="498.46909" xlink:href="#C0_0_b3677525ee" y="224.703228"/>
    </g>
    <g clip-path="url(#pa83a18fa30)">
     <use style="fill:#21918c;stroke:#21918c;" x="475.264787" xlink:href="#C0_0_b3677525ee" y="347.51592"/>
    </g>
    <g clip-path="url(#pa83a18fa30)">
     <use style="fill:#21918c;stroke:#21918c;" x="438.479965" xlink:href="#C0_0_b3677525ee" y="344.617034"/>
    </g>
    <g clip-path="url(#pa83a18fa30)">
     <use style="fill:#21918c;stroke:#21918c;" x="499.932314" xlink:href="#C0_0_b3677525ee" y="375.993682"/>
    </g>
    <g clip-path="url(#pa83a18fa30)">
     <use style="fill:#21918c;stroke:#21918c;" x="421.927006" xlink:href="#C0_0_b3677525ee" y="382.086603"/>
    </g>
    <g clip-path="url(#pa83a18fa30)">
     <use style="fill:#21918c;stroke:#21918c;" x="514.809098" xlink:href="#C0_0_b3677525ee" y="307.331606"/>
    </g>
    <g clip-path="url(#pa83a18fa30)">
     <use style="fill:#21918c;stroke:#21918c;" x="449.041035" xlink:href="#C0_0_b3677525ee" y="304.981845"/>
    </g>
    <g clip-path="url(#pa83a18fa30)">
     <use style="fill:#21918c;stroke:#21918c;" x="530.583543" xlink:href="#C0_0_b3677525ee" y="343.745005"/>
    </g>
    <g clip-path="url(#pa83a18fa30)">
     <use style="fill:#21918c;stroke:#21918c;" x="497.937335" xlink:href="#C0_0_b3677525ee" y="322.024661"/>
    </g>
    <g clip-path="url(#pa83a18fa30)">
     <use style="fill:#21918c;stroke:#21918c;" x="479.997064" xlink:href="#C0_0_b3677525ee" y="272.340428"/>
    </g>
    <g clip-path="url(#pa83a18fa30)">
     <use style="fill:#21918c;stroke:#21918c;" x="496.068123" xlink:href="#C0_0_b3677525ee" y="245.469027"/>
    </g>
    <g clip-path="url(#pa83a18fa30)">
     <use style="fill:#21918c;stroke:#21918c;" x="533.5182" xlink:href="#C0_0_b3677525ee" y="258.057075"/>
    </g>
    <g clip-path="url(#pa83a18fa30)">
     <use style="fill:#21918c;stroke:#21918c;" x="553.097664" xlink:href="#C0_0_b3677525ee" y="254.604783"/>
    </g>
    <g clip-path="url(#pa83a18fa30)">
     <use style="fill:#21918c;stroke:#21918c;" x="488.533558" xlink:href="#C0_0_b3677525ee" y="319.121494"/>
    </g>
    <g clip-path="url(#pa83a18fa30)">
     <use style="fill:#21918c;stroke:#21918c;" x="391.504666" xlink:href="#C0_0_b3677525ee" y="349.805889"/>
    </g>
    <g clip-path="url(#pa83a18fa30)">
     <use style="fill:#21918c;stroke:#21918c;" x="412.096983" xlink:href="#C0_0_b3677525ee" y="400.256244"/>
    </g>
    <g clip-path="url(#pa83a18fa30)">
     <use style="fill:#21918c;stroke:#21918c;" x="401.560841" xlink:href="#C0_0_b3677525ee" y="396.529801"/>
    </g>
    <g clip-path="url(#pa83a18fa30)">
     <use style="fill:#21918c;stroke:#21918c;" x="429.836029" xlink:href="#C0_0_b3677525ee" y="341.685291"/>
    </g>
    <g clip-path="url(#pa83a18fa30)">
     <use style="fill:#21918c;stroke:#21918c;" x="537.680937" xlink:href="#C0_0_b3677525ee" y="357.696232"/>
    </g>
    <g clip-path="url(#pa83a18fa30)">
     <use style="fill:#21918c;stroke:#21918c;" x="468.996891" xlink:href="#C0_0_b3677525ee" y="367.18001"/>
    </g>
    <g clip-path="url(#pa83a18fa30)">
     <use style="fill:#21918c;stroke:#21918c;" x="487.975745" xlink:href="#C0_0_b3677525ee" y="265.58301"/>
    </g>
    <g clip-path="url(#pa83a18fa30)">
     <use style="fill:#21918c;stroke:#21918c;" x="523.863344" xlink:href="#C0_0_b3677525ee" y="233.621986"/>
    </g>
    <g clip-path="url(#pa83a18fa30)">
     <use style="fill:#21918c;stroke:#21918c;" x="488.690052" xlink:href="#C0_0_b3677525ee" y="350.371154"/>
    </g>
    <g clip-path="url(#pa83a18fa30)">
     <use style="fill:#21918c;stroke:#21918c;" x="439.334391" xlink:href="#C0_0_b3677525ee" y="334.870719"/>
    </g>
    <g clip-path="url(#pa83a18fa30)">
     <use style="fill:#21918c;stroke:#21918c;" x="432.436288" xlink:href="#C0_0_b3677525ee" y="396.775376"/>
    </g>
    <g clip-path="url(#pa83a18fa30)">
     <use style="fill:#21918c;stroke:#21918c;" x="458.312442" xlink:href="#C0_0_b3677525ee" y="395.095967"/>
    </g>
    <g clip-path="url(#pa83a18fa30)">
     <use style="fill:#21918c;stroke:#21918c;" x="495.256494" xlink:href="#C0_0_b3677525ee" y="299.821567"/>
    </g>
    <g clip-path="url(#pa83a18fa30)">
     <use style="fill:#21918c;stroke:#21918c;" x="437.998064" xlink:href="#C0_0_b3677525ee" y="355.215202"/>
    </g>
    <g clip-path="url(#pa83a18fa30)">
     <use style="fill:#21918c;stroke:#21918c;" x="356.90786" xlink:href="#C0_0_b3677525ee" y="446.239151"/>
    </g>
    <g clip-path="url(#pa83a18fa30)">
     <use style="fill:#21918c;stroke:#21918c;" x="448.962387" xlink:href="#C0_0_b3677525ee" y="370.268138"/>
    </g>
    <g clip-path="url(#pa83a18fa30)">
     <use style="fill:#21918c;stroke:#21918c;" x="446.790307" xlink:href="#C0_0_b3677525ee" y="326.504546"/>
    </g>
    <g clip-path="url(#pa83a18fa30)">
     <use style="fill:#21918c;stroke:#21918c;" x="450.630374" xlink:href="#C0_0_b3677525ee" y="338.568586"/>
    </g>
    <g clip-path="url(#pa83a18fa30)">
     <use style="fill:#21918c;stroke:#21918c;" x="473.729169" xlink:href="#C0_0_b3677525ee" y="292.004518"/>
    </g>
    <g clip-path="url(#pa83a18fa30)">
     <use style="fill:#21918c;stroke:#21918c;" x="339.395769" xlink:href="#C0_0_b3677525ee" y="407.881411"/>
    </g>
    <g clip-path="url(#pa83a18fa30)">
     <use style="fill:#21918c;stroke:#21918c;" x="443.934299" xlink:href="#C0_0_b3677525ee" y="346.906182"/>
    </g>
    <g clip-path="url(#pa83a18fa30)">
     <use style="fill:#fde725;stroke:#fde725;" x="637.510183" xlink:href="#C0_0_b3677525ee" y="296.13556"/>
    </g>
    <g clip-path="url(#pa83a18fa30)">
     <use style="fill:#fde725;stroke:#fde725;" x="540.734303" xlink:href="#C0_0_b3677525ee" y="380.751178"/>
    </g>
    <g clip-path="url(#pa83a18fa30)">
     <use style="fill:#fde725;stroke:#fde725;" x="644.923302" xlink:href="#C0_0_b3677525ee" y="243.163162"/>
    </g>
    <g clip-path="url(#pa83a18fa30)">
     <use style="fill:#fde725;stroke:#fde725;" x="588.976272" xlink:href="#C0_0_b3677525ee" y="321.573947"/>
    </g>
    <g clip-path="url(#pa83a18fa30)">
     <use style="fill:#fde725;stroke:#fde725;" x="621.797647" xlink:href="#C0_0_b3677525ee" y="300.68956"/>
    </g>
    <g clip-path="url(#pa83a18fa30)">
     <use style="fill:#fde725;stroke:#fde725;" x="712.596428" xlink:href="#C0_0_b3677525ee" y="212.17604"/>
    </g>
    <g clip-path="url(#pa83a18fa30)">
     <use style="fill:#fde725;stroke:#fde725;" x="463.206227" xlink:href="#C0_0_b3677525ee" y="473.269576"/>
    </g>
    <g clip-path="url(#pa83a18fa30)">
     <use style="fill:#fde725;stroke:#fde725;" x="672.319137" xlink:href="#C0_0_b3677525ee" y="241.4266"/>
    </g>
    <g clip-path="url(#pa83a18fa30)">
     <use style="fill:#fde725;stroke:#fde725;" x="619.302094" xlink:href="#C0_0_b3677525ee" y="331.173098"/>
    </g>
    <g clip-path="url(#pa83a18fa30)">
     <use style="fill:#fde725;stroke:#fde725;" x="670.945829" xlink:href="#C0_0_b3677525ee" y="177.442051"/>
    </g>
    <g clip-path="url(#pa83a18fa30)">
     <use style="fill:#fde725;stroke:#fde725;" x="562.114125" xlink:href="#C0_0_b3677525ee" y="258.388379"/>
    </g>
    <g clip-path="url(#pa83a18fa30)">
     <use style="fill:#fde725;stroke:#fde725;" x="574.396101" xlink:href="#C0_0_b3677525ee" y="326.951223"/>
    </g>
    <g clip-path="url(#pa83a18fa30)">
     <use style="fill:#fde725;stroke:#fde725;" x="605.805237" xlink:href="#C0_0_b3677525ee" y="262.274668"/>
    </g>
    <g clip-path="url(#pa83a18fa30)">
     <use style="fill:#fde725;stroke:#fde725;" x="534.744347" xlink:href="#C0_0_b3677525ee" y="410.984859"/>
    </g>
    <g clip-path="url(#pa83a18fa30)">
     <use style="fill:#fde725;stroke:#fde725;" x="555.536759" xlink:href="#C0_0_b3677525ee" y="375.468852"/>
    </g>
    <g clip-path="url(#pa83a18fa30)">
     <use style="fill:#fde725;stroke:#fde725;" x="583.159549" xlink:href="#C0_0_b3677525ee" y="276.803596"/>
    </g>
    <g clip-path="url(#pa83a18fa30)">
     <use style="fill:#fde725;stroke:#fde725;" x="587.082132" xlink:href="#C0_0_b3677525ee" y="288.379946"/>
    </g>
    <g clip-path="url(#pa83a18fa30)">
     <use style="fill:#fde725;stroke:#fde725;" x="720.402678" xlink:href="#C0_0_b3677525ee" y="118.600406"/>
    </g>
    <g clip-path="url(#pa83a18fa30)">
     <use style="fill:#fde725;stroke:#fde725;" x="747.163636" xlink:href="#C0_0_b3677525ee" y="256.128054"/>
    </g>
    <g clip-path="url(#pa83a18fa30)">
     <use style="fill:#fde725;stroke:#fde725;" x="530.809695" xlink:href="#C0_0_b3677525ee" y="408.638559"/>
    </g>
    <g clip-path="url(#pa83a18fa30)">
     <use style="fill:#fde725;stroke:#fde725;" x="628.54551" xlink:href="#C0_0_b3677525ee" y="238.028001"/>
    </g>
    <g clip-path="url(#pa83a18fa30)">
     <use style="fill:#fde725;stroke:#fde725;" x="521.982404" xlink:href="#C0_0_b3677525ee" y="385.419485"/>
    </g>
    <g clip-path="url(#pa83a18fa30)">
     <use style="fill:#fde725;stroke:#fde725;" x="721.518304" xlink:href="#C0_0_b3677525ee" y="225.677374"/>
    </g>
    <g clip-path="url(#pa83a18fa30)">
     <use style="fill:#fde725;stroke:#fde725;" x="538.438844" xlink:href="#C0_0_b3677525ee" y="325.268353"/>
    </g>
    <g clip-path="url(#pa83a18fa30)">
     <use style="fill:#fde725;stroke:#fde725;" x="615.33046" xlink:href="#C0_0_b3677525ee" y="244.497766"/>
    </g>
    <g clip-path="url(#pa83a18fa30)">
     <use style="fill:#fde725;stroke:#fde725;" x="644.699083" xlink:href="#C0_0_b3677525ee" y="210.66891"/>
    </g>
    <g clip-path="url(#pa83a18fa30)">
     <use style="fill:#fde725;stroke:#fde725;" x="527.142861" xlink:href="#C0_0_b3677525ee" y="321.570487"/>
    </g>
    <g clip-path="url(#pa83a18fa30)">
     <use style="fill:#fde725;stroke:#fde725;" x="529.972009" xlink:href="#C0_0_b3677525ee" y="312.131181"/>
    </g>
    <g clip-path="url(#pa83a18fa30)">
     <use style="fill:#fde725;stroke:#fde725;" x="602.164461" xlink:href="#C0_0_b3677525ee" y="326.066513"/>
    </g>
    <g clip-path="url(#pa83a18fa30)">
     <use style="fill:#fde725;stroke:#fde725;" x="625.092758" xlink:href="#C0_0_b3677525ee" y="225.083532"/>
    </g>
    <g clip-path="url(#pa83a18fa30)">
     <use style="fill:#fde725;stroke:#fde725;" x="664.435042" xlink:href="#C0_0_b3677525ee" y="238.466279"/>
    </g>
    <g clip-path="url(#pa83a18fa30)">
     <use style="fill:#fde725;stroke:#fde725;" x="698.169234" xlink:href="#C0_0_b3677525ee" y="88.887273"/>
    </g>
    <g clip-path="url(#pa83a18fa30)">
     <use style="fill:#fde725;stroke:#fde725;" x="605.271548" xlink:href="#C0_0_b3677525ee" y="327.196798"/>
    </g>
    <g clip-path="url(#pa83a18fa30)">
     <use style="fill:#fde725;stroke:#fde725;" x="543.242714" xlink:href="#C0_0_b3677525ee" y="316.136058"/>
    </g>
    <g clip-path="url(#pa83a18fa30)">
     <use style="fill:#fde725;stroke:#fde725;" x="572.478967" xlink:href="#C0_0_b3677525ee" y="369.518157"/>
    </g>
    <g clip-path="url(#pa83a18fa30)">
     <use style="fill:#fde725;stroke:#fde725;" x="684.799274" xlink:href="#C0_0_b3677525ee" y="191.623778"/>
    </g>
    <g clip-path="url(#pa83a18fa30)">
     <use style="fill:#fde725;stroke:#fde725;" x="603.953895" xlink:href="#C0_0_b3677525ee" y="273.686891"/>
    </g>
    <g clip-path="url(#pa83a18fa30)">
     <use style="fill:#fde725;stroke:#fde725;" x="583.215204" xlink:href="#C0_0_b3677525ee" y="287.278237"/>
    </g>
    <g clip-path="url(#pa83a18fa30)">
     <use style="fill:#fde725;stroke:#fde725;" x="519.409006" xlink:href="#C0_0_b3677525ee" y="319.367069"/>
    </g>
    <g clip-path="url(#pa83a18fa30)">
     <use style="fill:#fde725;stroke:#fde725;" x="600.77715" xlink:href="#C0_0_b3677525ee" y="238.912711"/>
    </g>
    <g clip-path="url(#pa83a18fa30)">
     <use style="fill:#fde725;stroke:#fde725;" x="618.688626" xlink:href="#C0_0_b3677525ee" y="267.159973"/>
    </g>
    <g clip-path="url(#pa83a18fa30)">
     <use style="fill:#fde725;stroke:#fde725;" x="584.704158" xlink:href="#C0_0_b3677525ee" y="233.38481"/>
    </g>
    <g clip-path="url(#pa83a18fa30)">
     <use style="fill:#fde725;stroke:#fde725;" x="540.734303" xlink:href="#C0_0_b3677525ee" y="380.751178"/>
    </g>
    <g clip-path="url(#pa83a18fa30)">
     <use style="fill:#fde725;stroke:#fde725;" x="640.269673" xlink:href="#C0_0_b3677525ee" y="253.052361"/>
    </g>
    <g clip-path="url(#pa83a18fa30)">
     <use style="fill:#fde725;stroke:#fde725;" x="627.758809" xlink:href="#C0_0_b3677525ee" y="249.018908"/>
    </g>
    <g clip-path="url(#pa83a18fa30)">
     <use style="fill:#fde725;stroke:#fde725;" x="586.598298" xlink:href="#C0_0_b3677525ee" y="266.578811"/>
    </g>
    <g clip-path="url(#pa83a18fa30)">
     <use style="fill:#fde725;stroke:#fde725;" x="550.440947" xlink:href="#C0_0_b3677525ee" y="350.862304"/>
    </g>
    <g clip-path="url(#pa83a18fa30)">
     <use style="fill:#fde725;stroke:#fde725;" x="571.00914" xlink:href="#C0_0_b3677525ee" y="282.852045"/>
    </g>
    <g clip-path="url(#pa83a18fa30)">
     <use style="fill:#fde725;stroke:#fde725;" x="582.854749" xlink:href="#C0_0_b3677525ee" y="277.196335"/>
    </g>
    <g clip-path="url(#pa83a18fa30)">
     <use style="fill:#fde725;stroke:#fde725;" x="538.562224" xlink:href="#C0_0_b3677525ee" y="336.987586"/>
    </g>
   </g>
   <g id="matplotlib.axis_1">
    <g id="xtick_1">
     <g id="line2d_1">
      <defs>
       <path d="M 0 0 
L 0 3.5 
" id="me4f2ff5097" style="stroke:#000000;stroke-width:0.8;"/>
      </defs>
      <g>
       <use style="stroke:#000000;stroke-width:0.8;" x="138.436364" xlink:href="#me4f2ff5097" y="504"/>
      </g>
     </g>
     <g id="text_1">
      <!-- 0.0 -->
      <g transform="translate(130.484801 518.598438)scale(0.1 -0.1)">
       <defs>
        <path d="M 31.78125 66.40625 
Q 24.171875 66.40625 20.328125 58.90625 
Q 16.5 51.421875 16.5 36.375 
Q 16.5 21.390625 20.328125 13.890625 
Q 24.171875 6.390625 31.78125 6.390625 
Q 39.453125 6.390625 43.28125 13.890625 
Q 47.125 21.390625 47.125 36.375 
Q 47.125 51.421875 43.28125 58.90625 
Q 39.453125 66.40625 31.78125 66.40625 
z
M 31.78125 74.21875 
Q 44.046875 74.21875 50.515625 64.515625 
Q 56.984375 54.828125 56.984375 36.375 
Q 56.984375 17.96875 50.515625 8.265625 
Q 44.046875 -1.421875 31.78125 -1.421875 
Q 19.53125 -1.421875 13.0625 8.265625 
Q 6.59375 17.96875 6.59375 36.375 
Q 6.59375 54.828125 13.0625 64.515625 
Q 19.53125 74.21875 31.78125 74.21875 
z
" id="DejaVuSans-48"/>
        <path d="M 10.6875 12.40625 
L 21 12.40625 
L 21 0 
L 10.6875 0 
z
" id="DejaVuSans-46"/>
       </defs>
       <use xlink:href="#DejaVuSans-48"/>
       <use x="63.623047" xlink:href="#DejaVuSans-46"/>
       <use x="95.410156" xlink:href="#DejaVuSans-48"/>
      </g>
     </g>
    </g>
    <g id="xtick_2">
     <g id="line2d_2">
      <g>
       <use style="stroke:#000000;stroke-width:0.8;" x="260.181818" xlink:href="#me4f2ff5097" y="504"/>
      </g>
     </g>
     <g id="text_2">
      <!-- 0.2 -->
      <g transform="translate(252.230256 518.598438)scale(0.1 -0.1)">
       <defs>
        <path d="M 19.1875 8.296875 
L 53.609375 8.296875 
L 53.609375 0 
L 7.328125 0 
L 7.328125 8.296875 
Q 12.9375 14.109375 22.625 23.890625 
Q 32.328125 33.6875 34.8125 36.53125 
Q 39.546875 41.84375 41.421875 45.53125 
Q 43.3125 49.21875 43.3125 52.78125 
Q 43.3125 58.59375 39.234375 62.25 
Q 35.15625 65.921875 28.609375 65.921875 
Q 23.96875 65.921875 18.8125 64.3125 
Q 13.671875 62.703125 7.8125 59.421875 
L 7.8125 69.390625 
Q 13.765625 71.78125 18.9375 73 
Q 24.125 74.21875 28.421875 74.21875 
Q 39.75 74.21875 46.484375 68.546875 
Q 53.21875 62.890625 53.21875 53.421875 
Q 53.21875 48.921875 51.53125 44.890625 
Q 49.859375 40.875 45.40625 35.40625 
Q 44.1875 33.984375 37.640625 27.21875 
Q 31.109375 20.453125 19.1875 8.296875 
z
" id="DejaVuSans-50"/>
       </defs>
       <use xlink:href="#DejaVuSans-48"/>
       <use x="63.623047" xlink:href="#DejaVuSans-46"/>
       <use x="95.410156" xlink:href="#DejaVuSans-50"/>
      </g>
     </g>
    </g>
    <g id="xtick_3">
     <g id="line2d_3">
      <g>
       <use style="stroke:#000000;stroke-width:0.8;" x="381.927273" xlink:href="#me4f2ff5097" y="504"/>
      </g>
     </g>
     <g id="text_3">
      <!-- 0.4 -->
      <g transform="translate(373.97571 518.598438)scale(0.1 -0.1)">
       <defs>
        <path d="M 37.796875 64.3125 
L 12.890625 25.390625 
L 37.796875 25.390625 
z
M 35.203125 72.90625 
L 47.609375 72.90625 
L 47.609375 25.390625 
L 58.015625 25.390625 
L 58.015625 17.1875 
L 47.609375 17.1875 
L 47.609375 0 
L 37.796875 0 
L 37.796875 17.1875 
L 4.890625 17.1875 
L 4.890625 26.703125 
z
" id="DejaVuSans-52"/>
       </defs>
       <use xlink:href="#DejaVuSans-48"/>
       <use x="63.623047" xlink:href="#DejaVuSans-46"/>
       <use x="95.410156" xlink:href="#DejaVuSans-52"/>
      </g>
     </g>
    </g>
    <g id="xtick_4">
     <g id="line2d_4">
      <g>
       <use style="stroke:#000000;stroke-width:0.8;" x="503.672727" xlink:href="#me4f2ff5097" y="504"/>
      </g>
     </g>
     <g id="text_4">
      <!-- 0.6 -->
      <g transform="translate(495.721165 518.598438)scale(0.1 -0.1)">
       <defs>
        <path d="M 33.015625 40.375 
Q 26.375 40.375 22.484375 35.828125 
Q 18.609375 31.296875 18.609375 23.390625 
Q 18.609375 15.53125 22.484375 10.953125 
Q 26.375 6.390625 33.015625 6.390625 
Q 39.65625 6.390625 43.53125 10.953125 
Q 47.40625 15.53125 47.40625 23.390625 
Q 47.40625 31.296875 43.53125 35.828125 
Q 39.65625 40.375 33.015625 40.375 
z
M 52.59375 71.296875 
L 52.59375 62.3125 
Q 48.875 64.0625 45.09375 64.984375 
Q 41.3125 65.921875 37.59375 65.921875 
Q 27.828125 65.921875 22.671875 59.328125 
Q 17.53125 52.734375 16.796875 39.40625 
Q 19.671875 43.65625 24.015625 45.921875 
Q 28.375 48.1875 33.59375 48.1875 
Q 44.578125 48.1875 50.953125 41.515625 
Q 57.328125 34.859375 57.328125 23.390625 
Q 57.328125 12.15625 50.6875 5.359375 
Q 44.046875 -1.421875 33.015625 -1.421875 
Q 20.359375 -1.421875 13.671875 8.265625 
Q 6.984375 17.96875 6.984375 36.375 
Q 6.984375 53.65625 15.1875 63.9375 
Q 23.390625 74.21875 37.203125 74.21875 
Q 40.921875 74.21875 44.703125 73.484375 
Q 48.484375 72.75 52.59375 71.296875 
z
" id="DejaVuSans-54"/>
       </defs>
       <use xlink:href="#DejaVuSans-48"/>
       <use x="63.623047" xlink:href="#DejaVuSans-46"/>
       <use x="95.410156" xlink:href="#DejaVuSans-54"/>
      </g>
     </g>
    </g>
    <g id="xtick_5">
     <g id="line2d_5">
      <g>
       <use style="stroke:#000000;stroke-width:0.8;" x="625.418182" xlink:href="#me4f2ff5097" y="504"/>
      </g>
     </g>
     <g id="text_5">
      <!-- 0.8 -->
      <g transform="translate(617.466619 518.598438)scale(0.1 -0.1)">
       <defs>
        <path d="M 31.78125 34.625 
Q 24.75 34.625 20.71875 30.859375 
Q 16.703125 27.09375 16.703125 20.515625 
Q 16.703125 13.921875 20.71875 10.15625 
Q 24.75 6.390625 31.78125 6.390625 
Q 38.8125 6.390625 42.859375 10.171875 
Q 46.921875 13.96875 46.921875 20.515625 
Q 46.921875 27.09375 42.890625 30.859375 
Q 38.875 34.625 31.78125 34.625 
z
M 21.921875 38.8125 
Q 15.578125 40.375 12.03125 44.71875 
Q 8.5 49.078125 8.5 55.328125 
Q 8.5 64.0625 14.71875 69.140625 
Q 20.953125 74.21875 31.78125 74.21875 
Q 42.671875 74.21875 48.875 69.140625 
Q 55.078125 64.0625 55.078125 55.328125 
Q 55.078125 49.078125 51.53125 44.71875 
Q 48 40.375 41.703125 38.8125 
Q 48.828125 37.15625 52.796875 32.3125 
Q 56.78125 27.484375 56.78125 20.515625 
Q 56.78125 9.90625 50.3125 4.234375 
Q 43.84375 -1.421875 31.78125 -1.421875 
Q 19.734375 -1.421875 13.25 4.234375 
Q 6.78125 9.90625 6.78125 20.515625 
Q 6.78125 27.484375 10.78125 32.3125 
Q 14.796875 37.15625 21.921875 38.8125 
z
M 18.3125 54.390625 
Q 18.3125 48.734375 21.84375 45.5625 
Q 25.390625 42.390625 31.78125 42.390625 
Q 38.140625 42.390625 41.71875 45.5625 
Q 45.3125 48.734375 45.3125 54.390625 
Q 45.3125 60.0625 41.71875 63.234375 
Q 38.140625 66.40625 31.78125 66.40625 
Q 25.390625 66.40625 21.84375 63.234375 
Q 18.3125 60.0625 18.3125 54.390625 
z
" id="DejaVuSans-56"/>
       </defs>
       <use xlink:href="#DejaVuSans-48"/>
       <use x="63.623047" xlink:href="#DejaVuSans-46"/>
       <use x="95.410156" xlink:href="#DejaVuSans-56"/>
      </g>
     </g>
    </g>
    <g id="xtick_6">
     <g id="line2d_6">
      <g>
       <use style="stroke:#000000;stroke-width:0.8;" x="747.163636" xlink:href="#me4f2ff5097" y="504"/>
      </g>
     </g>
     <g id="text_6">
      <!-- 1.0 -->
      <g transform="translate(739.212074 518.598438)scale(0.1 -0.1)">
       <defs>
        <path d="M 12.40625 8.296875 
L 28.515625 8.296875 
L 28.515625 63.921875 
L 10.984375 60.40625 
L 10.984375 69.390625 
L 28.421875 72.90625 
L 38.28125 72.90625 
L 38.28125 8.296875 
L 54.390625 8.296875 
L 54.390625 0 
L 12.40625 0 
z
" id="DejaVuSans-49"/>
       </defs>
       <use xlink:href="#DejaVuSans-49"/>
       <use x="63.623047" xlink:href="#DejaVuSans-46"/>
       <use x="95.410156" xlink:href="#DejaVuSans-48"/>
      </g>
     </g>
    </g>
   </g>
   <g id="matplotlib.axis_2">
    <g id="ytick_1">
     <g id="line2d_7">
      <defs>
       <path d="M 0 0 
L -3.5 0 
" id="meb34507b2b" style="stroke:#000000;stroke-width:0.8;"/>
      </defs>
      <g>
       <use style="stroke:#000000;stroke-width:0.8;" x="108" xlink:href="#meb34507b2b" y="484.232727"/>
      </g>
     </g>
     <g id="text_7">
      <!-- 0.00 -->
      <g transform="translate(78.734375 488.031946)scale(0.1 -0.1)">
       <use xlink:href="#DejaVuSans-48"/>
       <use x="63.623047" xlink:href="#DejaVuSans-46"/>
       <use x="95.410156" xlink:href="#DejaVuSans-48"/>
       <use x="159.033203" xlink:href="#DejaVuSans-48"/>
      </g>
     </g>
    </g>
    <g id="ytick_2">
     <g id="line2d_8">
      <g>
       <use style="stroke:#000000;stroke-width:0.8;" x="108" xlink:href="#meb34507b2b" y="431.676589"/>
      </g>
     </g>
     <g id="text_8">
      <!-- 0.05 -->
      <g transform="translate(78.734375 435.475808)scale(0.1 -0.1)">
       <defs>
        <path d="M 10.796875 72.90625 
L 49.515625 72.90625 
L 49.515625 64.59375 
L 19.828125 64.59375 
L 19.828125 46.734375 
Q 21.96875 47.46875 24.109375 47.828125 
Q 26.265625 48.1875 28.421875 48.1875 
Q 40.625 48.1875 47.75 41.5 
Q 54.890625 34.8125 54.890625 23.390625 
Q 54.890625 11.625 47.5625 5.09375 
Q 40.234375 -1.421875 26.90625 -1.421875 
Q 22.3125 -1.421875 17.546875 -0.640625 
Q 12.796875 0.140625 7.71875 1.703125 
L 7.71875 11.625 
Q 12.109375 9.234375 16.796875 8.0625 
Q 21.484375 6.890625 26.703125 6.890625 
Q 35.15625 6.890625 40.078125 11.328125 
Q 45.015625 15.765625 45.015625 23.390625 
Q 45.015625 31 40.078125 35.4375 
Q 35.15625 39.890625 26.703125 39.890625 
Q 22.75 39.890625 18.8125 39.015625 
Q 14.890625 38.140625 10.796875 36.28125 
z
" id="DejaVuSans-53"/>
       </defs>
       <use xlink:href="#DejaVuSans-48"/>
       <use x="63.623047" xlink:href="#DejaVuSans-46"/>
       <use x="95.410156" xlink:href="#DejaVuSans-48"/>
       <use x="159.033203" xlink:href="#DejaVuSans-53"/>
      </g>
     </g>
    </g>
    <g id="ytick_3">
     <g id="line2d_9">
      <g>
       <use style="stroke:#000000;stroke-width:0.8;" x="108" xlink:href="#meb34507b2b" y="379.120452"/>
      </g>
     </g>
     <g id="text_9">
      <!-- 0.10 -->
      <g transform="translate(78.734375 382.91967)scale(0.1 -0.1)">
       <use xlink:href="#DejaVuSans-48"/>
       <use x="63.623047" xlink:href="#DejaVuSans-46"/>
       <use x="95.410156" xlink:href="#DejaVuSans-49"/>
       <use x="159.033203" xlink:href="#DejaVuSans-48"/>
      </g>
     </g>
    </g>
    <g id="ytick_4">
     <g id="line2d_10">
      <g>
       <use style="stroke:#000000;stroke-width:0.8;" x="108" xlink:href="#meb34507b2b" y="326.564314"/>
      </g>
     </g>
     <g id="text_10">
      <!-- 0.15 -->
      <g transform="translate(78.734375 330.363533)scale(0.1 -0.1)">
       <use xlink:href="#DejaVuSans-48"/>
       <use x="63.623047" xlink:href="#DejaVuSans-46"/>
       <use x="95.410156" xlink:href="#DejaVuSans-49"/>
       <use x="159.033203" xlink:href="#DejaVuSans-53"/>
      </g>
     </g>
    </g>
    <g id="ytick_5">
     <g id="line2d_11">
      <g>
       <use style="stroke:#000000;stroke-width:0.8;" x="108" xlink:href="#meb34507b2b" y="274.008176"/>
      </g>
     </g>
     <g id="text_11">
      <!-- 0.20 -->
      <g transform="translate(78.734375 277.807395)scale(0.1 -0.1)">
       <use xlink:href="#DejaVuSans-48"/>
       <use x="63.623047" xlink:href="#DejaVuSans-46"/>
       <use x="95.410156" xlink:href="#DejaVuSans-50"/>
       <use x="159.033203" xlink:href="#DejaVuSans-48"/>
      </g>
     </g>
    </g>
    <g id="ytick_6">
     <g id="line2d_12">
      <g>
       <use style="stroke:#000000;stroke-width:0.8;" x="108" xlink:href="#meb34507b2b" y="221.452038"/>
      </g>
     </g>
     <g id="text_12">
      <!-- 0.25 -->
      <g transform="translate(78.734375 225.251257)scale(0.1 -0.1)">
       <use xlink:href="#DejaVuSans-48"/>
       <use x="63.623047" xlink:href="#DejaVuSans-46"/>
       <use x="95.410156" xlink:href="#DejaVuSans-50"/>
       <use x="159.033203" xlink:href="#DejaVuSans-53"/>
      </g>
     </g>
    </g>
    <g id="ytick_7">
     <g id="line2d_13">
      <g>
       <use style="stroke:#000000;stroke-width:0.8;" x="108" xlink:href="#meb34507b2b" y="168.8959"/>
      </g>
     </g>
     <g id="text_13">
      <!-- 0.30 -->
      <g transform="translate(78.734375 172.695119)scale(0.1 -0.1)">
       <defs>
        <path d="M 40.578125 39.3125 
Q 47.65625 37.796875 51.625 33 
Q 55.609375 28.21875 55.609375 21.1875 
Q 55.609375 10.40625 48.1875 4.484375 
Q 40.765625 -1.421875 27.09375 -1.421875 
Q 22.515625 -1.421875 17.65625 -0.515625 
Q 12.796875 0.390625 7.625 2.203125 
L 7.625 11.71875 
Q 11.71875 9.328125 16.59375 8.109375 
Q 21.484375 6.890625 26.8125 6.890625 
Q 36.078125 6.890625 40.9375 10.546875 
Q 45.796875 14.203125 45.796875 21.1875 
Q 45.796875 27.640625 41.28125 31.265625 
Q 36.765625 34.90625 28.71875 34.90625 
L 20.21875 34.90625 
L 20.21875 43.015625 
L 29.109375 43.015625 
Q 36.375 43.015625 40.234375 45.921875 
Q 44.09375 48.828125 44.09375 54.296875 
Q 44.09375 59.90625 40.109375 62.90625 
Q 36.140625 65.921875 28.71875 65.921875 
Q 24.65625 65.921875 20.015625 65.03125 
Q 15.375 64.15625 9.8125 62.3125 
L 9.8125 71.09375 
Q 15.4375 72.65625 20.34375 73.4375 
Q 25.25 74.21875 29.59375 74.21875 
Q 40.828125 74.21875 47.359375 69.109375 
Q 53.90625 64.015625 53.90625 55.328125 
Q 53.90625 49.265625 50.4375 45.09375 
Q 46.96875 40.921875 40.578125 39.3125 
z
" id="DejaVuSans-51"/>
       </defs>
       <use xlink:href="#DejaVuSans-48"/>
       <use x="63.623047" xlink:href="#DejaVuSans-46"/>
       <use x="95.410156" xlink:href="#DejaVuSans-51"/>
       <use x="159.033203" xlink:href="#DejaVuSans-48"/>
      </g>
     </g>
    </g>
    <g id="ytick_8">
     <g id="line2d_14">
      <g>
       <use style="stroke:#000000;stroke-width:0.8;" x="108" xlink:href="#meb34507b2b" y="116.339763"/>
      </g>
     </g>
     <g id="text_14">
      <!-- 0.35 -->
      <g transform="translate(78.734375 120.138981)scale(0.1 -0.1)">
       <use xlink:href="#DejaVuSans-48"/>
       <use x="63.623047" xlink:href="#DejaVuSans-46"/>
       <use x="95.410156" xlink:href="#DejaVuSans-51"/>
       <use x="159.033203" xlink:href="#DejaVuSans-53"/>
      </g>
     </g>
    </g>
   </g>
   <g id="patch_3">
    <path d="M 108 504 
L 108 69.12 
" style="fill:none;stroke:#000000;stroke-linecap:square;stroke-linejoin:miter;stroke-width:0.8;"/>
   </g>
   <g id="patch_4">
    <path d="M 777.6 504 
L 777.6 69.12 
" style="fill:none;stroke:#000000;stroke-linecap:square;stroke-linejoin:miter;stroke-width:0.8;"/>
   </g>
   <g id="patch_5">
    <path d="M 108 504 
L 777.6 504 
" style="fill:none;stroke:#000000;stroke-linecap:square;stroke-linejoin:miter;stroke-width:0.8;"/>
   </g>
   <g id="patch_6">
    <path d="M 108 69.12 
L 777.6 69.12 
" style="fill:none;stroke:#000000;stroke-linecap:square;stroke-linejoin:miter;stroke-width:0.8;"/>
   </g>
  </g>
 </g>
 <defs>
  <clipPath id="pa83a18fa30">
   <rect height="434.88" width="669.6" x="108" y="69.12"/>
  </clipPath>
 </defs>
</svg>
